<?xml version="1.0" standalone="no"?>
<!DOCTYPE svg PUBLIC "-//W3C//DTD SVG 20010904//EN"
 "http://www.w3.org/TR/2001/REC-SVG-20010904/DTD/svg10.dtd">
<svg version="1.0" xmlns="http://www.w3.org/2000/svg"
 width="700.000000pt" height="700.000000pt" viewBox="0 0 700.000000 700.000000"
 preserveAspectRatio="xMidYMid meet">
<metadata>
Created by potrace 1.14, written by Peter Selinger 2001-2017
</metadata>
<g transform="translate(0.000000,700.000000) scale(0.100000,-0.100000)"
fill="#000000" stroke="none">
<path d="M0 5187 l0 -1812 1685 0 c1118 0 1686 -3 1688 -10 2 -5 3 -765 3
-1687 l-1 -1678 1812 0 1813 0 0 3500 0 3500 -3500 0 -3500 0 0 -1813z m3370
1481 c0 -46 2 -748 3 -1560 2 -1306 0 -1477 -13 -1480 -8 -2 -710 -4 -1560 -3
l-1545 0 -3 1563 -2 1562 1560 0 1560 0 0 -82z m3380 -1478 l0 -1560 -42 0
c-387 -3 -3072 0 -3075 3 -3 4 -6 2380 -3 3040 l0 77 1560 0 1560 0 0 -1560z
m-27 -1820 l27 0 0 -1560 0 -1560 -1562 2 -1563 3 0 1555 0 1555 75 5 c54 4
2753 4 3023 0z"/>
<path d="M1281 5970 c-9 -6 -11 -1589 -2 -1591 3 -1 66 -2 139 -3 l132 -2 0
308 0 308 158 0 157 -1 15 -32 c9 -18 68 -133 132 -257 64 -124 127 -245 140
-270 13 -25 24 -47 26 -50 5 -8 302 -6 302 2 0 7 -55 113 -90 173 -9 17 -42
77 -73 135 -31 58 -87 163 -126 235 l-70 129 48 26 c162 89 243 226 242 410
-1 253 -131 411 -384 466 -57 13 -143 17 -405 18 -183 1 -336 -1 -341 -4z
m710 -246 c94 -43 140 -121 141 -238 2 -94 -31 -168 -94 -213 -74 -51 -102
-56 -323 -57 l-160 -1 -3 268 -2 269 197 -4 c176 -3 203 -6 244 -24z"/>
<path d="M4255 5970 c-1 -3 30 -147 70 -320 40 -173 94 -406 119 -517 26 -111
49 -210 51 -220 26 -125 118 -512 124 -523 7 -12 32 -15 130 -15 67 -1 126 2
131 5 6 3 19 40 30 81 185 707 284 1068 290 1062 6 -7 27 -84 45 -163 2 -8 26
-103 55 -210 28 -107 53 -202 55 -210 2 -8 22 -87 45 -175 23 -88 44 -168 46
-177 7 -29 12 -50 30 -113 9 -33 18 -69 21 -81 4 -19 11 -20 133 -19 71 0 131
3 134 6 5 5 83 326 100 413 3 11 23 100 45 196 60 255 152 652 156 674 3 10
18 80 35 155 18 75 32 140 33 146 1 5 -53 9 -135 10 -76 0 -138 -1 -138 -2 0
-1 -13 -66 -30 -145 -16 -79 -32 -161 -36 -183 -3 -22 -8 -43 -10 -46 -2 -3
-6 -21 -9 -40 -3 -19 -15 -77 -26 -129 -11 -52 -24 -117 -30 -145 -12 -67 -16
-82 -28 -138 -6 -26 -14 -64 -17 -85 -3 -20 -12 -64 -20 -97 -7 -33 -16 -76
-19 -95 -17 -110 -18 -108 -109 255 -48 193 -89 357 -91 365 -2 8 -24 98 -50
200 -55 217 -50 195 -60 243 -4 20 -12 38 -19 38 -6 1 -60 2 -119 3 -107 1
-108 1 -113 -24 -3 -14 -10 -38 -15 -55 -7 -23 -69 -269 -94 -375 -2 -8 -33
-130 -69 -270 -36 -140 -78 -304 -93 -365 l-27 -110 -13 55 c-7 30 -16 71 -19
90 -3 19 -28 140 -55 267 -27 128 -51 243 -53 255 -50 253 -107 522 -113 528
-6 6 -264 7 -268 0z"/>
<path d="M4615 1800 l0 -802 300 5 c304 4 321 5 410 34 244 78 408 265 466
533 21 99 19 374 -5 475 -55 240 -210 427 -416 504 -116 43 -165 48 -466 50
l-289 2 0 -801z m605 560 c118 -31 209 -114 258 -233 40 -97 47 -143 46 -337
0 -181 -11 -245 -61 -348 -48 -97 -147 -177 -252 -204 -20 -5 -99 -11 -177
-14 l-141 -4 0 572 c0 315 1 575 3 579 5 10 279 2 324 -11z"/>
</g>
</svg>
