<svg width="56" height="56" viewBox="0 0 56 56" fill="none" xmlns="http://www.w3.org/2000/svg">
<rect x="28" y="28" width="27" height="27" stroke="#040404" stroke-width="2"/>
<rect x="28" y="1" width="27" height="27" stroke="#040404" stroke-width="2"/>
<rect x="1" y="1" width="27" height="27" stroke="#040404" stroke-width="2"/>
<path d="M36.9209 48V35.2031H40.7002C41.8311 35.2031 42.833 35.4551 43.7061 35.959C44.585 36.4629 45.2646 37.1777 45.7451 38.1035C46.2256 39.0293 46.4658 40.0898 46.4658 41.2852V41.9268C46.4658 43.1396 46.2227 44.2061 45.7363 45.126C45.2559 46.0459 44.5674 46.7549 43.6709 47.2529C42.7803 47.751 41.7578 48 40.6035 48H36.9209ZM39.1445 36.9961V46.2246H40.5947C41.7607 46.2246 42.6543 45.8613 43.2754 45.1348C43.9023 44.4023 44.2217 43.3535 44.2334 41.9883V41.2764C44.2334 39.8877 43.9316 38.8271 43.3281 38.0947C42.7246 37.3623 41.8486 36.9961 40.7002 36.9961H39.1445Z" fill="black"/>
<path d="M44.9189 17.8359L46.8877 8.20312H49.0938L46.1406 21H44.0137L41.5791 11.6572L39.0918 21H36.9561L34.0029 8.20312H36.209L38.1953 17.8184L40.6387 8.20312H42.502L44.9189 17.8359Z" fill="black"/>
<path d="M14.8867 16.0693H12.4082V21H10.1846V8.20312H14.6846C16.1611 8.20312 17.3008 8.53418 18.1035 9.19629C18.9062 9.8584 19.3076 10.8164 19.3076 12.0703C19.3076 12.9258 19.0996 13.6436 18.6836 14.2236C18.2734 14.7979 17.6992 15.2402 16.9609 15.5508L19.835 20.8857V21H17.4531L14.8867 16.0693ZM12.4082 14.2852H14.6934C15.4434 14.2852 16.0293 14.0977 16.4512 13.7227C16.873 13.3418 17.084 12.8232 17.084 12.167C17.084 11.4814 16.8877 10.9512 16.4951 10.5762C16.1084 10.2012 15.5283 10.0078 14.7549 9.99609H12.4082V14.2852Z" fill="black"/>
</svg>
